HIERARCHY
ROOT Hips
{
    OFFSET 0.000000 0.000000 0.000000
    CHANNELS 6 Xposition Yposition Zposition Zrotation Xrotation Yrotation
        JOINT Chest
        {
            OFFSET -0.000000 31.780966 -0.000000
            CHANNELS 3 Zrotation Xrotation Yrotation
            JOINT Neck
            {
                OFFSET -0.000000 23.880144 0.000000
                CHANNELS 3 Zrotation Xrotation Yrotation
                JOINT Head
                {
                    OFFSET -0.000000 10.511110 0.000000
                    CHANNELS 3 Zrotation Xrotation Yrotation
                    End Site
                    {
                        OFFSET -0.000000 16.244448 0.000000
                    }
                }
            }
            JOINT LeftCollar
            {
                OFFSET -0.000000 23.880144 0.000000
                CHANNELS 3 Zrotation Xrotation Yrotation
                JOINT LeftShoulder
                {
                    OFFSET 19.111111 -0.000000 0.000000
                    CHANNELS 3 Zrotation Xrotation Yrotation
                    JOINT LeftElbow
                    {
                        OFFSET 21.456259 0.000000 0.000000
                        CHANNELS 3 Zrotation Xrotation Yrotation
                        JOINT LeftWrist
                        {
                            OFFSET 25.693237 0.000000 0.000000
                            CHANNELS 3 Zrotation Xrotation Yrotation
                            End Site
                            {
                                OFFSET 0.000000 -14.333333 0.000000
                            }
                        }
                    }
                }
            }
            JOINT RightCollar
            {
                OFFSET -0.000000 23.880144 0.000000
                CHANNELS 3 Zrotation Xrotation Yrotation
                JOINT RightShoulder
                {
                    OFFSET -19.111111 0.000000 0.000000
                    CHANNELS 3 Zrotation Xrotation Yrotation
                    JOINT RightElbow
                    {
                        OFFSET -21.456259 0.000000 0.000000
                        CHANNELS 3 Zrotation Xrotation Yrotation
                        JOINT RightWrist
                        {
                            OFFSET -25.693237 0.000000 0.000000
                            CHANNELS 3 Zrotation Xrotation Yrotation
                            End Site
                            {
                                OFFSET -0.000000 -14.333333 0.000000
                            }
                        }
                    }
                }
            }
        }
    JOINT LeftHip
    {
        OFFSET 11.466667 0.000000 0.000000
        CHANNELS 3 Zrotation Xrotation Yrotation
        JOINT LeftKnee
        {
            OFFSET -0.000000 -37.225342 0.000000
            CHANNELS 3 Zrotation Xrotation Yrotation
            JOINT LeftAnkle
            {
                OFFSET -0.000000 -35.678333 0.000000
                CHANNELS 3 Zrotation Xrotation Yrotation
                End Site
                {
                    OFFSET -0.000000 -4.777778 16.244448
                }
            }
        }
    }
    JOINT RightHip
    {
        OFFSET -11.466667 0.000000 0.000000
        CHANNELS 3 Zrotation Xrotation Yrotation
        JOINT RightKnee
        {
            OFFSET -0.000000 -37.225342 0.000000
            CHANNELS 3 Zrotation Xrotation Yrotation
            JOINT RightAnkle
            {
                OFFSET -0.000000 -35.678333 0.000000
                CHANNELS 3 Zrotation Xrotation Yrotation
                End Site
                {
                    OFFSET -0.000000 -4.777778 16.244448
                }
            }
        }
    }
}
MOTION
Frames:    8
Frame Time:    0.010000
49.092819    83.795502    -39.470188    1.272314    -5.223977    -42.274437    -8.273887    4.043639    3.620150    7.978395    1.914192    2.800110    2.791110    12.031331    2.610341    -11.876340    -0.345261    3.508510    -34.284077    18.779764    -17.413300    43.039989    -44.566994    -92.225761    118.168015    26.431868    45.326733    14.134303    0.244668    2.132861    51.163956    13.974308    -8.648030    -8.560410    -5.596800    66.112297    -99.203018    -1.843703    4.650379    -2.190083    -0.174834    -2.467289    0.247178    14.129848    -0.283185    -3.309000    -11.754101    12.332835    -7.905549    2.587729    2.487653    -4.637503    13.527895    1.242239    7.275359    -9.687234    -13.230330    
49.235344    83.783531    -39.340290    1.415164    -5.239705    -42.456131    -8.347049    3.981460    3.333766    8.102903    1.531061    2.388527    2.416568    12.001136    2.240290    -11.570113    -0.247330    1.698509    -34.201229    18.293482    -17.828192    42.071384    -43.467720    -92.832222    117.220833    28.268711    46.992256    14.016252    0.139315    0.341747    51.478821    13.669693    -8.428992    -8.698388    -5.753859    66.468048    -99.653610    -1.771844    3.827544    -2.421105    -0.281765    -2.472654    0.131044    14.213097    -0.089577    -3.150457    -11.782263    12.378983    -8.277401    2.301486    2.141298    -4.560249    13.777706    1.938495    7.403849    -9.847239    -13.453717    
49.275856    83.771362    -39.226387    1.072247    -5.305371    -43.008228    -8.147991    4.119950    3.428510    7.880593    2.006577    3.055688    2.008684    11.917529    2.987064    -11.617774    -0.214643    2.136372    -33.043354    18.770685    -18.937286    41.749592    -42.782726    -91.812218    115.311028    26.309240    49.267715    14.136522    0.091718    0.478815    51.172791    14.189533    -8.306914    -8.777466    -5.813631    66.719055    -100.118835    -1.225995    1.852733    -2.294547    0.138158    -1.839129    0.169246    14.098443    -0.377950    -3.063933    -11.785892    12.525953    -8.183972    2.277995    2.360113    -4.505282    14.079681    2.164315    7.193475    -9.883280    -13.441248    
49.347900    83.772446    -39.140282    0.983929    -5.340862    -43.273521    -8.095569    4.137871    3.356575    7.764703    2.207530    3.392472    1.690596    11.857427    3.368284    -11.576566    -0.232908    2.120032    -32.461365    18.961424    -19.594090    41.452156    -42.187305    -91.356514    114.249329    25.973803    50.536983    14.148032    0.052238    0.369805    51.182701    14.287467    -8.288694    -8.842723    -5.878229    66.941116    -100.485695    -0.941839    0.802584    -2.337311    0.277210    -1.653350    0.151260    14.063446    -0.373811    -3.004102    -11.790741    12.598764    -8.275189    2.176186    2.316443    -4.457466    14.282804    2.451726    7.160645    -9.937419    -13.491602    
49.432381    83.775642    -39.042248    0.882375    -5.385139    -43.567825    -8.033115    4.165805    3.269249    7.600510    2.472052    3.826897    1.314991    11.822008    3.856406    -11.549869    -0.212099    2.221892    -31.736115    19.228264    -20.400951    41.118694    -41.436420    -90.771156    113.055367    25.630438    51.997921    14.160910    0.052322    0.377531    51.209499    14.316961    -8.285798    -8.893554    -5.925951    67.202477    -100.888130    -0.632980    -0.327871    -2.395475    0.441953    -1.474648    0.134316    14.014215    -0.342621    -2.939209    -11.791103    12.679603    -8.380091    2.064803    2.271888    -4.404210    14.513581    2.752227    7.124370    -9.989137    -13.536535    
49.527992    83.779930    -38.933666    0.770720    -5.438386    -43.883759    -7.959030    4.216392    3.165596    7.390289    2.761854    4.302750    0.920938    11.751586    4.386943    -11.532662    -0.211412    2.353741    -30.880806    19.669556    -21.348705    40.867821    -40.677624    -89.929482    111.716797    25.087679    53.412849    14.174963    0.032636    0.410909    51.263245    14.291608    -8.311224    -8.965464    -6.008556    67.575500    -101.313248    -0.278289    -1.533145    -2.471562    0.629007    -1.312924    0.119186    13.950803    -0.277918    -2.866169    -11.785265    12.764987    -8.497787    1.945883    2.235567    -4.348135    14.767876    3.052423    7.090093    -10.035126    -13.573550    
49.633106    83.784393    -38.816498    0.652543    -5.499898    -44.214020    -7.873510    4.288904    3.043625    7.126029    3.078367    4.813345    0.518116    11.646288    4.953864    -11.528437    -0.245527    2.517887    -29.909544    20.297306    -22.405085    40.719303    -39.885380    -88.824043    110.277420    24.469614    54.836563    14.194386    0.052571    0.488296    51.337891    14.138768    -8.348756    -8.943147    -6.058863    67.995499    -101.834572    0.090221    -2.706663    -2.566638    0.833251    -1.174235    0.106611    13.874627    -0.176496    -2.781681    -11.772213    12.850438    -8.626195    1.820265    2.217034    -4.293376    15.041928    3.343349    7.066341    -10.072683    -13.602581    
49.745766    83.788254    -38.693272    0.531231    -5.567781    -44.551662    -7.775872    4.380742    2.902190    6.809790    3.412396    5.351399    0.107588    11.513445    5.544911    -11.543330    -0.266009    2.706379    -28.832642    21.056034    -23.560862    40.620209    -39.009705    -87.506454    108.813217    23.875660    56.266949    14.224669    0.087127    0.611593    51.427631    13.890791    -8.398203    -8.954010    -6.085933    68.499557    -102.270111    0.458848    -3.824276    -2.679080    1.048042    -1.060578    0.096315    13.788851    -0.039718    -2.681946    -11.751759    12.932186    -8.761247    1.687717    2.224809    -4.245973    15.332039    3.621694    7.062355    -10.098980    -13.626416    
